<svg width="24" height="24" viewBox="0 0 24 24" fill="none" xmlns="http://www.w3.org/2000/svg">
<path d="M19.2 7.00012H18.81C18.9299 6.68004 18.9941 6.34184 19 6.00012C18.979 5.1867 18.637 4.41464 18.0487 3.85254C17.4604 3.29045 16.6735 2.984 15.86 3.00012C15.0606 3.01738 14.2804 3.24927 13.6013 3.6715C12.9223 4.09373 12.3692 4.69078 12 5.40012C11.6309 4.69078 11.0778 4.09373 10.3987 3.6715C9.7196 3.24927 8.93949 3.01738 8.14002 3.00012C7.3265 2.984 6.53965 3.29045 5.95132 3.85254C5.36299 4.41464 5.021 5.1867 5.00002 6.00012C5.00593 6.34184 5.07019 6.68004 5.19002 7.00012H4.80002C4.53688 7.0251 4.2813 7.102 4.04806 7.22637C3.81482 7.35074 3.60854 7.52011 3.44116 7.72469C3.27378 7.92926 3.14861 8.16499 3.07289 8.41824C2.99717 8.67149 2.9724 8.93724 3.00002 9.20012V12.8001C2.9533 13.2844 3.0778 13.7696 3.35186 14.1716C3.62591 14.5735 4.03218 14.8667 4.50002 15.0001V19.3701C4.53089 19.8237 4.73707 20.2475 5.0749 20.5517C5.41273 20.8559 5.85569 21.0168 6.31002 21.0001H17.69C18.1509 21.0164 18.5996 20.8501 18.9385 20.5374C19.2774 20.2247 19.4792 19.7908 19.5 19.3301V15.0001C19.9679 14.8667 20.3741 14.5735 20.6482 14.1716C20.9222 13.7696 21.0467 13.2844 21 12.8001V9.20012C21.0276 8.93724 21.0029 8.67149 20.9272 8.41824C20.8514 8.16499 20.7263 7.92926 20.5589 7.72469C20.3915 7.52011 20.1852 7.35074 19.952 7.22637C19.7187 7.102 19.4632 7.0251 19.2 7.00012ZM19 9.20012V12.8001C19.012 12.8662 19.012 12.934 19 13.0001H13V9.00012H19C19.012 9.06624 19.012 9.13399 19 9.20012ZM15.86 5.00012C16.1433 4.98361 16.4217 5.07926 16.635 5.26639C16.8484 5.45352 16.9795 5.71709 17 6.00012C16.9795 6.28314 16.8484 6.54672 16.635 6.73385C16.4217 6.92098 16.1433 7.01663 15.86 7.00012H13.4C13.575 6.46589 13.9 5.99327 14.3361 5.63865C14.7723 5.28403 15.3013 5.06237 15.86 5.00012ZM7.00002 6.00012C7.02056 5.71709 7.15167 5.45352 7.365 5.26639C7.57832 5.07926 7.85673 4.98361 8.14002 5.00012C8.69693 5.06418 9.22378 5.28666 9.65804 5.64116C10.0923 5.99567 10.4158 6.4673 10.59 7.00012H8.14002C7.85673 7.01663 7.57832 6.92098 7.365 6.73385C7.15167 6.54672 7.02056 6.28314 7.00002 6.00012ZM5.00002 9.20012C4.98802 9.13399 4.98802 9.06624 5.00002 9.00012H11V13.0001H5.00002C4.98802 12.934 4.98802 12.8662 5.00002 12.8001V9.20012ZM6.50002 15.0001H11V19.0001H6.50002V15.0001ZM13 19.0001V15.0001H17.5V19.0001H13Z" fill="#FFFFFD"/>
</svg>
